Coordinates
version=1
nRows=26
nColumns=22
inDegrees=yes

Units are S.I. units (second, meters, Newtons, ...)
If the header above contains a line with 'inDegrees', this indicates whether rotational values are in degrees (yes) or radians (no).

endheader
time	pelvis_tilt	pelvis_list	pelvis_rotation	pelvis_tx	pelvis_ty	pelvis_tz	hip_flexion_r	hip_adduction_r	hip_rotation_r	knee_angle_r	ankle_angle_r	subtalar_angle_r	hip_flexion_l	hip_adduction_l	hip_rotation_l	knee_angle_l	ankle_angle_l	subtalar_angle_l	lumbar_extension	lumbar_bending	lumbar_rotation
      4.68000000	     -5.05539676	     -6.10978355	      7.61642112	     -0.71152646	      0.95236705	     -0.26447120	      2.50688756	      7.01448924	     -9.43582559	    -24.11397984	     17.42779142	      5.38535652	     26.64961160	     -4.85776298	     15.38185252	    -13.90589763	      4.74450868	     -7.81369075	     -0.54136221	      6.39260558	     -0.35900780
      4.69000000	     -5.02099948	     -6.11311647	      7.74881686	     -0.71813723	      0.95271875	     -0.26251407	      2.73937242	      7.16329315	     -9.58874015	    -23.80891785	     17.55043221	      4.80490170	     26.63048758	     -5.00675220	     15.19522044	    -13.29891146	      5.44332061	     -7.63882843	     -0.69691418	      6.38450889	     -0.30972238
      4.70000000	     -4.98609353	     -6.09289106	      7.89547345	     -0.72456828	      0.95317146	     -0.26068886	      2.94846716	      7.28161985	     -9.72458750	    -23.48436916	     17.63507154	      4.23920685	     26.59359850	     -5.10988811	     15.01902691	    -12.74424521	      6.05308356	     -7.45433868	     -0.83767173	      6.34984483	     -0.29086020
      4.71000000	     -4.95459084	     -6.04860187	      8.05961167	     -0.73083212	      0.95369276	     -0.25901504	      3.13076708	      7.36733670	     -9.85397168	    -23.13005351	     17.69693260	      3.70270241	     26.55652718	     -5.15886954	     14.86773822	    -12.28180035	      6.53999865	     -7.26797481	     -0.96089052	      6.29020119	     -0.31027679
      4.72000000	     -4.92340136	     -5.97880283	      8.24668721	     -0.73694467	      0.95426021	     -0.25749464	      3.28183189	      7.41889352	     -9.98545114	    -22.74695314	     17.75155921	      3.23960785	     26.52765714	     -5.14771990	     14.75365119	    -11.94724092	      6.88151564	     -7.09883525	     -1.07379972	      6.20407328	     -0.39007228
      4.73000000	     -4.90614175	     -5.88321689	      8.44651806	     -0.74290522	      0.95484167	     -0.25612694	      3.40352263	      7.43669399	    -10.11040040	    -22.31525160	     17.79726398	      2.77549294	     26.52165490	     -5.07546870	     14.70130199	    -11.76271768	      7.07500223	     -6.91720252	     -1.16252303	      6.09042723	     -0.48346248
      4.74000000	     -4.89246976	     -5.76541783	      8.65956829	     -0.74873615	      0.95542463	     -0.25491576	      3.48940742	      7.42609588	    -10.22305724	    -21.84233409	     17.85094343	      2.31597964	     26.54090001	     -4.94367334	     14.72201602	    -11.76148395	      7.14030477	     -6.72832424	     -1.24350500	      5.95761121	     -0.59085963
      4.75000000	     -4.87841236	     -5.62348513	      8.88547495	     -0.75443851	      0.95599702	     -0.25384578	      3.54691706	      7.38205880	    -10.33376446	    -21.35179916	     17.92781954	      1.92536303	     26.57674808	     -4.75430886	     14.81915795	    -11.94177430	      7.09257970	     -6.55442582	     -1.32404959	      5.80262240	     -0.72559031
      4.76000000	     -4.85868763	     -5.46094317	      9.11868913	     -0.75999862	      0.95656104	     -0.25292276	      3.58264948	      7.29990775	    -10.47696950	    -20.86636505	     18.05133879	      1.68577736	     26.61516333	     -4.51625732	     14.96809305	    -12.28653176	      6.94982556	     -6.43058694	     -1.40859989	      5.63203846	     -0.85796604
      4.77000000	     -4.84304856	     -5.31502001	      9.33730529	     -0.76545786	      0.95711265	     -0.25205744	      3.61823531	      7.24320751	    -10.53142879	    -20.38026028	     18.08908974	      1.21470809	     26.66453168	     -4.27770061	     15.23347699	    -12.78015354	      6.78702079	     -6.15664492	     -1.48977947	      5.48199476	     -0.98141382
      4.78000000	     -4.82038361	     -5.17557076	      9.54137319	     -0.77074957	      0.95766785	     -0.25128479	      3.65586383	      7.17541829	    -10.60928727	    -19.93294837	     18.14982383	      0.88673464	     26.70603261	     -4.03438747	     15.50895971	    -13.40321020	      6.58551035	     -5.91211644	     -1.57251606	      5.34614344	     -1.05588480
      4.79000000	     -4.78192269	     -5.05279804	      9.73141335	     -0.77592716	      0.95824677	     -0.25058596	      3.71976654	      7.11338697	    -10.65719925	    -19.57154763	     18.16934070	      0.63373902	     26.72603898	     -3.79772336	     15.84726542	    -14.13336824	      6.40942449	     -5.66134349	     -1.67229459	      5.23774572	     -1.11508912
      4.80000000	     -4.71546872	     -4.94767925	      9.91020744	     -0.78093838	      0.95887789	     -0.24994920	      3.80017796	      7.05461049	    -10.71917823	    -19.30439935	     18.16404967	      0.50965266	     26.70615972	     -3.57589006	     16.19662506	    -14.95042781	      6.28309794	     -5.49887964	     -1.79474674	      5.15605823	     -1.15057465
      4.81000000	     -4.65702024	     -4.89813560	     10.07304025	     -0.78580649	      0.95952932	     -0.24932497	      3.93275253	      7.04752614	    -10.74716514	    -19.10488960	     18.08063738	      0.32604241	     26.69209651	     -3.40530195	     16.55979734	    -15.83710921	      6.23019848	     -5.20651973	     -1.89497445	      5.13264189	     -1.16572140
      4.82000000	     -4.59415816	     -4.85588035	     10.19977449	     -0.79048784	      0.96024308	     -0.24874041	      4.09907319	      7.03784544	    -10.72705501	    -18.98930790	     17.94674946	      0.14220964	     26.64866678	     -3.25275944	     16.85185099	    -16.77264426	      6.23621321	     -4.84910254	     -1.98923751	      5.12475447	     -1.14145697
      4.83000000	     -4.50530670	     -4.82625986	     10.32483603	     -0.79497388	      0.96102277	     -0.24819025	      4.26907035	      7.03305639	    -10.73325171	    -18.94076935	     17.78434549	      0.03896548	     26.56201488	     -3.11694108	     17.09383786	    -17.75359867	      6.33225863	     -4.60101455	     -2.09972319	      5.12961083	     -1.11391634
      4.84000000	     -4.41564249	     -4.79227302	     10.44021793	     -0.79927090	      0.96184990	     -0.24767854	      4.45593177	      7.01683402	    -10.73882241	    -18.94238173	     17.58660487	     -0.07748155	     26.44942671	     -2.98244237	     17.25767503	    -18.75941633	      6.48836803	     -4.30851920	     -2.20136142	      5.12890036	     -1.08467613
      4.85000000	     -4.31346365	     -4.74534340	     10.55885468	     -0.80336022	      0.96273009	     -0.24720102	      4.62580638	      6.98627916	    -10.75665683	    -18.96084064	     17.37221096	     -0.17892426	     26.29414698	     -2.84264338	     17.34901083	    -19.77632167	      6.69884749	     -4.05880033	     -2.30655739	      5.11139132	     -1.07218662
      4.86000000	     -4.20751594	     -4.67920744	     10.68388113	     -0.80724968	      0.96364852	     -0.24677463	      4.77784533	      6.93277435	    -10.79773501	    -18.98076109	     17.14270859	     -0.29239921	     26.10089968	     -2.68957530	     17.37033051	    -20.78736171	      6.94343155	     -3.79406850	     -2.40696668	      5.06962741	     -1.07074633
      4.87000000	     -4.10771728	     -4.57723303	     10.80002364	     -0.81093806	      0.96459288	     -0.24638083	      4.91310912	      6.83847628	    -10.83183042	    -18.99574008	     16.91231075	     -0.29811417	     25.86429662	     -2.51499137	     17.30807699	    -21.76380297	      7.17217365	     -3.77767212	     -2.49776659	      4.98267373	     -1.08604717
      4.88000000	     -3.98433835	     -4.50124657	     10.97339866	     -0.81444783	      0.96555030	     -0.24604987	      4.99376263	      6.77945533	    -10.93339677	    -18.96210434	     16.66157004	     -0.47971299	     25.58878742	     -2.35770342	     17.28442026	    -22.71941966	      7.49705616	     -3.36246286	     -2.59746955	      4.92271742	     -1.16069458
      4.89000000	     -3.91285496	     -4.39035344	     11.10311813	     -0.81779020	      0.96645158	     -0.24572991	      5.11266307	      6.66978669	    -10.98476699	    -18.93849354	     16.42877292	     -0.48063577	     25.31079513	     -2.18598914	     17.16256319	    -23.60812338	      7.75992704	     -3.35383531	     -2.64324066	      4.81448825	     -1.22280170
      4.90000000	     -3.77633773	     -4.28823118	     11.28706049	     -0.82093391	      0.96741303	     -0.24547115	      5.12052111	      6.58535672	    -11.10692726	    -18.85409047	     16.19681272	     -0.60925579	     24.91938188	     -2.03060018	     17.11231316	    -24.41047759	      8.09315224	     -3.01689994	     -2.74939058	      4.72339689	     -1.34278001
      4.91000000	     -3.69526671	     -4.18532960	     11.42428164	     -0.82392986	      0.96827475	     -0.24519576	      5.17531055	      6.48796182	    -11.18780773	    -18.77229931	     15.96974880	     -0.66886051	     24.54182835	     -1.89725445	     16.99688409	    -25.12887414	      8.41044966	     -2.80731399	     -2.79451453	      4.62063187	     -1.43183492
      4.92000000	     -3.63951303	     -4.09964657	     11.53721323	     -0.82679451	      0.96905162	     -0.24491251	      5.25570533	      6.39811807	    -11.28373463	    -18.70103637	     15.76120913	     -0.67895700	     24.14638963	     -1.80105045	     16.87134638	    -25.73896979	      8.74093690	     -2.70802789	     -2.81001459	      4.52937926	     -1.49262731
      4.93000000	     -3.57363108	     -4.01862654	     11.62626492	     -0.82949738	      0.96981186	     -0.24463157	      5.29251581	      6.32038524	    -11.34987443	    -18.58879512	     15.53706443	     -0.69387021	     23.68407510	     -1.74374584	     16.71581594	    -26.21644162	      9.09444544	     -2.49621293	     -2.83537627	      4.44830836	     -1.56116958
